<?xml version="1.0" encoding="utf-8"?>
<!-- Generator: Adobe Illustrator 22.1.0, SVG Export Plug-In . SVG Version: 6.00 Build 0)  -->
<svg version="1.1" id="Layer_1" xmlns="http://www.w3.org/2000/svg" xmlns:xlink="http://www.w3.org/1999/xlink" x="0px" y="0px"
	 viewBox="0 0 1000 1000" style="enable-background:new 0 0 1000 1000;" xml:space="preserve">
<style type="text/css">
	.st0{fill:#FFFFFF;}
	.st1{clip-path:url(#SVGID_2_);fill:url(#SVGID_3_);}
</style>
<g>
	<g>
		<g>
			<path class="st0" d="M183,499.2c0-5.8,1-11.5,3.1-17.2s5-10.8,8.9-15.5c3.9-4.7,8.7-8.4,14.3-11.2c5.7-2.8,12.1-4.2,19.4-4.2
				c8.6,0,15.9,2,22,5.9c6,3.9,10.5,9,13.4,15.2L260,474c-2.4-4.5-5.3-8.2-8.8-10.9c-3.5-2.7-7.2-4.7-11.2-5.8
				c-3.9-1.2-7.9-1.8-11.9-1.8c-6.4,0-12.2,1.3-17.2,3.8c-5,2.5-9.3,5.9-12.7,10.2c-3.4,4.3-6.1,9-7.8,14.2
				c-1.8,5.2-2.7,10.5-2.7,15.8c0,6,1,11.6,3.1,17c2.1,5.4,5,10.1,8.6,14.3c3.7,4.2,8,7.5,12.9,9.9c4.9,2.5,10.3,3.7,16.1,3.7
				c4.1,0,8.2-0.7,12.5-2c4.3-1.4,8.2-3.5,12-6.4c3.7-2.9,6.7-6.6,9-11.2l4.2,1.6c-2.2,4.8-5.3,8.9-9.5,12.2
				c-4.2,3.4-8.8,5.9-13.8,7.6c-5,1.7-10,2.6-14.9,2.6c-6.5,0-12.6-1.4-18.1-4.3c-5.5-2.9-10.3-6.7-14.3-11.4
				c-4-4.8-7.1-10.1-9.3-16C184.1,511.3,183,505.3,183,499.2z"/>
			<path class="st0" d="M297.8,548.3v-96.6h39.7c4.1,0,7.8,0.8,11.2,2.5c3.4,1.7,6.3,3.9,8.7,6.8c2.4,2.9,4.4,6,5.7,9.5
				c1.4,3.5,2,7,2,10.7c0,4.9-1,9.5-3,13.7c-2,4.3-4.8,7.8-8.3,10.6c-3.5,2.8-7.7,4.4-12.4,4.9l24.2,37.8h-5.4L336.3,511h-33.7v37.3
				H297.8z M302.5,506.7h35.8c4.5,0,8.5-1.2,11.8-3.7c3.3-2.5,5.9-5.6,7.7-9.5c1.8-3.9,2.7-8,2.7-12.2c0-4.4-1-8.5-3.1-12.3
				c-2.1-3.9-4.9-7-8.4-9.3c-3.5-2.4-7.4-3.5-11.6-3.5h-34.8V506.7z"/>
			<path class="st0" d="M543.4,460.6v87.7h-4.8v-96.6h3.8l70.7,89.1v-89.1h4.8v96.6H613L543.4,460.6z"/>
			<path class="st0" d="M724.1,456.1h-36.2v92.2h-4.8v-92.2H647v-4.4h77.1V456.1z"/>
			<path class="st0" d="M817,543.9v4.4h-63.8v-96.6h62.6v4.4H758v40.7h50.6v4.4H758v42.8H817z"/>
		</g>
	</g>
	<g>
		<defs>
			<path id="SVGID_1_" d="M460.6,455.7H398v-4.4h62.6V455.7z M486,496h-62.6v4.4H486V496z M509.1,543.6h-62.6v4.4h62.6V543.6z"/>
		</defs>
		<clipPath id="SVGID_2_">
			<use xlink:href="#SVGID_1_"  style="overflow:visible;"/>
		</clipPath>
		
			<linearGradient id="SVGID_3_" gradientUnits="userSpaceOnUse" x1="1446.5153" y1="12087.4639" x2="1542.7328" y2="12087.4639" gradientTransform="matrix(0 1 -1 0 12539.96 -994.7944)">
			<stop  offset="0" style="stop-color:#F128F7"/>
			<stop  offset="0.4975" style="stop-color:#7993FB"/>
			<stop  offset="1" style="stop-color:#00FFFF"/>
		</linearGradient>
		<polygon class="st1" points="395.9,547.9 395.9,451.7 509.1,451.7 509.1,547.9 		"/>
	</g>
</g>
</svg>
